<?xml version="1.0" encoding="iso-8859-1"?>
<!-- Generator: Adobe Illustrator 18.0.0, SVG Export Plug-In . SVG Version: 6.00 Build 0)  -->
<!DOCTYPE svg PUBLIC "-//W3C//DTD SVG 1.1//EN" "http://www.w3.org/Graphics/SVG/1.1/DTD/svg11.dtd">
<svg version="1.1" id="Capa_1" xmlns="http://www.w3.org/2000/svg" xmlns:xlink="http://www.w3.org/1999/xlink" x="0px" y="0px"
	 viewBox="0 0 240 240" style="enable-background:new 0 0 240 240;" xml:space="preserve">
<path d="M120,189.697c-38.492,0-69.696-31.205-69.696-69.697S81.508,50.303,120,50.303c38.494,0,69.699,31.205,69.699,69.697
	S158.494,189.697,120,189.697z M203.975,140L240,120l-36.025-20V140z M36.025,100L0,120l36.025,20V100z M120,240l20-36.025h-40
	L120,240z M120,0l-20,36.025h40L120,0z M46.481,165.238l-11.333,39.615l39.616-11.33L46.481,165.238z M165.238,46.477l28.283,28.285
	l11.332-39.613L165.238,46.477z M35.148,35.148L46.48,74.762l28.283-28.285L35.148,35.148z M165.238,193.523l39.615,11.33
	l-11.332-39.615L165.238,193.523z"/>
<g>
</g>
<g>
</g>
<g>
</g>
<g>
</g>
<g>
</g>
<g>
</g>
<g>
</g>
<g>
</g>
<g>
</g>
<g>
</g>
<g>
</g>
<g>
</g>
<g>
</g>
<g>
</g>
<g>
</g>
</svg>
